<?xml version="1.0" encoding="utf-8"?>
<!-- Generator: Adobe Illustrator 24.0.1, SVG Export Plug-In . SVG Version: 6.00 Build 0)  -->
<svg version="1.1" id="a7911dd8-4c59-47c4-8e89-f08275b909c0"
	 xmlns="http://www.w3.org/2000/svg" xmlns:xlink="http://www.w3.org/1999/xlink" x="0px" y="0px" viewBox="0 0 902.1 742.06"
	 style="enable-background:new 0 0 902.1 742.06;" xml:space="preserve">
<style type="text/css">
	.st0{fill:#E6E6E6;}
	.st1{fill:#FFFFFF;}
	.st2{fill:#0759A7;}
	.st3{fill:#2F2E41;}
	.st4{fill:#7C5327;}
	.st5{opacity:0.2;enable-background:new    ;}
	.st6{fill:#3F3D56;}
</style>
<path class="st0" d="M796.74,601.43c-18.17,35.47-41.22,69.76-70.39,100.81c-0.65,0.7-1.3,1.38-1.96,2.08l-69.1-32.71
	c0.42-0.7,0.89-1.49,1.38-2.35c29.68-50.79,208.86-360.59,203.2-430.76C860.54,244.28,881.78,435.66,796.74,601.43z"/>
<path class="st0" d="M739.69,708.55c-0.97,0.55-1.96,1.09-2.96,1.61l-51.84-24.54c0.72-0.51,1.57-1.12,2.54-1.81
	c15.88-11.4,63.11-45.61,109.31-82.38c49.66-39.51,98.15-81.96,105.35-102.23C900.63,503.85,855.18,645.1,739.69,708.55z"/>
<ellipse class="st0" cx="267" cy="715.63" rx="267" ry="26.44"/>
<circle class="st1" cx="120.8" cy="648.05" r="80"/>
<path class="st2" d="M152.85,614.48H88.76c-5.9,0.01-10.68,4.79-10.68,10.68v45.78c0.01,5.9,4.79,10.68,10.68,10.68h64.09
	c5.9-0.01,10.68-4.79,10.68-10.68v-45.78C163.52,619.26,158.74,614.49,152.85,614.48z M152.85,620.58c0.38,0,0.76,0.05,1.13,0.15
	l-33.17,26.46l-32.98-26.52c0.3-0.06,0.61-0.09,0.92-0.09H152.85z M152.85,675.52H88.76c-2.53,0-4.58-2.05-4.58-4.58v-45.37
	l34.71,27.91c1.11,0.9,2.7,0.9,3.82,0.01l34.72-27.7v45.15C157.42,673.47,155.37,675.52,152.85,675.52z"/>
<polygon class="st3" points="340.41,445.28 275.04,449.48 257.51,387.42 314.96,373.96 "/>
<path class="st4" d="M429.54,526.55l17.9,0.15c6.88,0.06,12.5-5.47,12.56-12.35c0.01-0.7-0.05-1.39-0.16-2.08l0,0
	c-1.09-6.79-7.48-11.41-14.27-10.32c-1.23,0.2-2.42,0.58-3.53,1.13l-16.88,8.33l-57.74,12.88L342.68,499l-14.21,23.4l33.38,25.79
	L429.54,526.55z"/>
<path class="st4" d="M426.19,711.49l-21.09,4.06c-14.41-45.41-30.01-88.41-30.01-121.67c-20.39,22.69-45.67,35.67-75.44,39.75
	l3.24-50.29l24.33-12.98l37.24-17.19c3.26-1.51,6.78-2.38,10.36-2.56l0,0c14.44-0.76,27.13,9.5,29.41,23.77L426.19,711.49z"/>
<path class="st3" d="M422.94,691.21c0,0,2.02-0.86,10.1,9.71c0,0,25.79,4.8,21.52,16.43s-37.43,11.26-40.58,9.49
	s-28.23-1.74-26.5-9.64s11.72-16.73,11.72-16.73s4.59,9.31,11.73,9.35c9.56,0.05,12.81-8.06,11.18-16.17
	C422.11,693.57,423,691.26,422.94,691.21z"/>
<path class="st3" d="M260.66,663.55c0,0,3.16,8.64-11.07,13.84c0,0-13.95,26.42-25.16,17.84s0.42-44.51,3.42-47.34
	s11.45-30.11,19.46-25.55s14.23,18.41,14.23,18.41s-25.77,8.28-13.58,27.43C247.96,668.2,253.27,668.56,260.66,663.55z"/>
<circle class="st4" cx="290.14" cy="407.91" r="26.56"/>
<path class="st4" d="M313.03,478.29H266.8l-9.73-28.39c16.87-5.15,12.93-19.78,9.73-34.07h46.23c-8.96,17.88-20.1,43.18,1.62,47.86
	L313.03,478.29z"/>
<path class="st3" d="M325.2,627.54l-8.41,6.39c-7.35,5.59-17.12,6.86-25.66,3.35l0,0c-24.08-18.05-43.71-12.64-59.21,14.6
	c-18.59-20.99-20.65-51.38-4.06-82.74l92.06,2.03l18.66-5.68L325.2,627.54z"/>
<path class="st4" d="M294.54,721.52L294.54,721.52c-10.89,3.35-22.61-1.59-27.82-11.72c-8.27-7.29-15.25-17.72-21.31-30.41
	c-4.34-9.31-8.07-18.89-11.17-28.68c-4.19-12.94,2.82-27.08,15.85-30.95c0.39-0.12,0.78-0.22,1.18-0.33
	c17.41-4.47,35.28,5.57,41.23,22.53l17.3,49.31c4.3,12.25-2.15,25.67-14.4,29.96C295.12,721.33,294.83,721.43,294.54,721.52z"/>
<path class="st5" d="M242.46,673.77c0,0,20.28,22.71,24.33,35.69"/>
<path class="st4" d="M163.82,566.59l-6.79,16.56c-2.61,6.36,0.44,13.64,6.8,16.25c0.64,0.26,1.31,0.47,1.99,0.63l0,0
	c6.71,1.51,13.37-2.71,14.88-9.42c0.27-1.21,0.36-2.46,0.27-3.7l-1.46-18.77l9.5-58.39l32.67-13.57l-16.45-21.89l-36.34,21.41
	L163.82,566.59z"/>
<path class="st1" d="M326.01,569.14c-23.31,39.15-60.79,32.28-100.58,1.62c16.78-12.55,6.49-48.67-8.11-51.1
	c-15.1-2.52-16.91-33.39-22.71-48.67l70.57-25.96l19.06,15.01l19.06-4.46l7.81,2.77c10.42,3.7,17.43,13.49,17.58,24.54
	C312.68,506.02,300.83,530.7,326.01,569.14z"/>
<path class="st1" d="M334.93,537.5c0,0-3.59-18.52-15.38-12.71s-12.6-10.41-12.6-10.41l9.33-53.94L354.4,501L334.93,537.5z"/>
<path class="st3" d="M314.95,373.72c0,0,13.46,5.05,13.65,22.97c-0.01,3.02-0.44,6.01-1.27,8.91c-0.9,3.29-1.67,10.42,4.13,20
	c3.79,6.22,7.22,12.65,10.25,19.27l0,0l-15.22,1.33l-2.29-25.23c-1.11-12.23-4.02-24.23-8.62-35.62l-0.1-0.24
	c0,0-7.08,12.06-20.34,11.57l4.91-4.56c0,0-16.66,6.11-25.7,7.28c-3.13,0.41-5.34,3.28-4.93,6.41c0.15,1.14,0.64,2.21,1.4,3.07
	c0.05,0.06,0.11,0.12,0.16,0.18c5.47,5.89,16.34,19.57,9.33,29.74c-7.01,10.17-1.44,13.22-1.44,13.22l-10.2-6.07l-4.63-3.02
	l-0.14,3.79l-24.51-3.75c0,0-6.59-1.19,8.21-16.76c0,0,3.98-6.11,2.54-11.56c-1.2-4.15-1.39-8.52-0.56-12.76
	C253.4,384.27,267.19,349.44,314.95,373.72z"/>
<path id="b82a9922-ead1-40af-af3b-f133b244cde7" class="st6" d="M799.28,172.95h-4V63.4c0-35.01-28.39-63.4-63.4-63.4l0,0H499.79
	c-35.01,0-63.4,28.39-63.4,63.4l0,0v600.97c0,35.01,28.39,63.4,63.4,63.4l0,0h232.09c35.01,0,63.4-28.39,63.4-63.4l0,0V250.92h4
	V172.95z"/>
<path id="b2a7827b-2d2c-407d-93be-35e4c67116bc" class="st1" d="M734.43,16.49h-30.29c4.69,11.5-0.83,24.63-12.33,29.33
	c-2.7,1.1-5.58,1.67-8.5,1.67H550.35c-12.42,0-22.49-10.07-22.49-22.5c0-2.91,0.57-5.8,1.67-8.49h-28.3
	c-26.15,0-47.35,21.2-47.35,47.35l0,0v600.09c0,26.15,21.2,47.35,47.35,47.35l0,0h233.2c26.15,0,47.35-21.2,47.35-47.35l0,0l0,0l0,0
	V63.84C781.77,37.69,760.58,16.49,734.43,16.49L734.43,16.49L734.43,16.49L734.43,16.49z"/>
<circle id="e6b07811-3d0f-4972-ba4c-46b0c6566e33" class="st0" cx="618.23" cy="651.75" r="26"/>
<path class="st0" d="M512.75,411.3c-2.46,0-4.46,2.28-4.46,5.09s2,5.09,4.46,5.09H722.9c2.46,0,4.46-2.28,4.46-5.09
	s-2-5.09-4.46-5.09H512.75z"/>
<path class="st0" d="M512.75,531.3c-2.46,0-4.46,2.28-4.46,5.09s2,5.09,4.46,5.09H722.9c2.46,0,4.46-2.28,4.46-5.09
	s-2-5.09-4.46-5.09H512.75z"/>
<path class="st0" d="M512.75,441.83c-2.46,0-4.46,2.28-4.46,5.09s2,5.09,4.46,5.09h90.43c2.46,0,4.46-2.28,4.46-5.09
	s-2-5.09-4.46-5.09H512.75z"/>
<path class="st0" d="M512.75,470.92c-2.46,0-4.46,2.28-4.46,5.09s2,5.09,4.46,5.09H722.9c2.46,0,4.46-2.28,4.46-5.09
	s-2-5.09-4.46-5.09H512.75z"/>
<path class="st0" d="M512.75,501.45c-2.46,0-4.46,2.28-4.46,5.09s2,5.09,4.46,5.09h90.43c2.46,0,4.46-2.28,4.46-5.09
	s-2-5.09-4.46-5.09H512.75z"/>
<path class="st2" d="M552.43,179.63h130.81c3.01,0,5.45,2.44,5.45,5.45v136.24c0,3.01-2.44,5.45-5.45,5.45H552.43
	c-3.01,0-5.45-2.44-5.45-5.45V185.08C546.98,182.07,549.42,179.63,552.43,179.63z"/>
<path class="st1" d="M655.37,298.67c2.04,0,3.7-1.65,3.7-3.7c0-2.04-1.66-3.7-3.7-3.7l0,0H580.3c-2.04,0-3.7,1.65-3.7,3.7
	c0,2.04,1.66,3.7,3.7,3.7l0,0H655.37z"/>
<path class="st1" d="M655.37,276.87c2.04,0,3.7-1.66,3.7-3.7s-1.66-3.7-3.7-3.7H580.3c-2.04,0-3.7,1.65-3.7,3.7
	c0,2.04,1.66,3.7,3.7,3.7l0,0H655.37z"/>
<path class="st1" d="M617.83,207.72c12.86,0,23.29,10.43,23.29,23.29s-10.43,23.29-23.29,23.29s-23.29-10.43-23.29-23.29l0,0
	C594.55,218.16,604.97,207.74,617.83,207.72z"/>
</svg>
